<?xml version="1.0" encoding="utf-8"?>
<!-- Generator: Adobe Illustrator 15.1.0, SVG Export Plug-In . SVG Version: 6.00 Build 0)  -->
<!DOCTYPE svg PUBLIC "-//W3C//DTD SVG 1.1//EN" "http://www.w3.org/Graphics/SVG/1.1/DTD/svg11.dtd">
<svg version="1.1" id="Layer_1" xmlns="http://www.w3.org/2000/svg" xmlns:xlink="http://www.w3.org/1999/xlink" x="0px" y="0px"
	 width="300px" height="300px" viewBox="0 0 300 300" enable-background="new 0 0 300 300" xml:space="preserve">
<path fill="#FFFFFF" d="M150,285.281c-6.477-5.402-18.582-15.848-32.825-29.813c-9.99-9.798-19.454-19.8-28.126-29.731
	c0,0-7.479,9.771-14.526,15.447L52.857,213.84c4.033-4.691,13.194-16.844,13.194-16.844c-6.526-8.944-11.76-16.963-16.626-25.312
	C32.129,142.053,22.414,98.3,18.062,74.079L51.711,54.64c3.275,21.678,12.051,69.519,29.101,98.729
	c0.82,1.402,1.674,2.796,2.529,4.188l2.026,3.305l1.158-3.396c5.403-15.845,8.142-32.562,8.142-49.686
	c0-17.32-2.315-34.013-6.88-49.629h47.119V38.227H72.62L96.265,13.12h107.687l23.635,25.107h-62.276v19.925h16.103v0.072
	l1.532,0.143c11.478,1.05,22.158,6.1,30.078,14.219c8.229,8.455,12.761,19.49,12.761,31.068c0,7.895-2.136,15.673-6.177,22.492
	c-3.769,6.33-9.141,11.776-15.533,15.745l-1.055,0.657l0.313,1.203c1.998,7.624,3.985,14.222,6.075,20.165l1.129,3.213l1.869-2.846
	c2.398-3.646,4.674-7.319,6.766-10.918c17.479-29.906,26.348-80.375,29.11-98.718l33.653,19.432
	c-4.351,24.221-14.066,67.974-31.371,97.604c-5.42,9.321-11.938,19.11-19.381,29.096l-0.848,1.136l0.971,1.028
	c4.547,4.83,9.57,8.758,14.938,11.677l-18.254,26.097c-5.739-3.88-11.212-8.475-16.276-13.658l-2.16,2.105l-0.051-1.766
	c-8.318,9.436-17.297,18.879-26.688,28.066C168.561,269.459,156.468,279.893,150,285.281z M116.571,144.425
	c-1.032,15.747-4.114,31.04-9.16,45.446l-0.312,0.895l0.598,0.73c11.943,14.615,25.786,29.421,41.147,44.007l1.161,1.104
	l1.161-1.102c13.751-13.047,26.376-26.377,37.523-39.619l-2.062-0.26l2.477-1.191c-7.42-15.43-11.973-32.268-13.528-50.045
	l-0.138-1.54h-10.127v40.048l-15.2,18.568l-15.205-18.568V142.85h-18.231L116.571,144.425z M165.311,115.397h17.508l0.654-0.038
	c3.715-0.296,7.137-1.986,9.656-4.761c2.551-2.77,3.959-6.427,3.959-10.282s-1.408-7.514-3.965-10.305
	c-2.539-2.784-5.961-4.47-9.637-4.747l-0.603-0.048h-17.573V115.397z M118.339,115.397h16.566v-30.18h-16.566V115.397z"/>
<g>
	<path fill="#9E2D0C" d="M150.005,234.281c-21.216-20.146-49.065-49.799-67.737-81.764c-17.92-30.703-26.686-82.939-29.251-100.581
		L16.194,73.21c4.647,26.228,14.393,69.547,31.773,99.324c8.744,14.995,19.88,30.616,33.099,46.466
		c10.412,12.48,22.173,25.16,34.929,37.672c14.563,14.282,27.036,25.029,33.893,30.712v0.188c0.046-0.023,0.078-0.078,0.117-0.086
		c0.033,0.008,0.067,0.062,0.105,0.086v-0.188c6.863-5.683,19.335-16.43,33.891-30.712c9.531-9.333,18.491-18.771,26.771-28.158
		c-9.408-9.541-17.307-20.98-23.371-33.714C174.645,209.951,161.377,223.494,150.005,234.281z"/>
	<path fill="#9E2D0C" d="M246.979,51.945c-2.543,17.633-11.32,69.87-29.265,100.573c-2.12,3.65-4.368,7.27-6.719,10.842
		c4.938,14.066,11.678,27.957,21.54,38.431c7.4-9.933,13.943-19.718,19.486-29.256c17.392-29.777,27.136-73.097,31.785-99.324
		L246.979,51.945z"/>
</g>
<path fill="#1B1C20" d="M87.216,226.216c-3.923,5.07-8.197,9.601-12.741,13.446l-20.218-25.546
	c4.191-4.819,8.031-9.677,11.531-14.593c-0.54-0.737-1.085-1.476-1.613-2.2c-3.796,5.399-7.976,10.72-12.523,15.93l-0.702,0.785
	l23.125,29.249l1.014-0.819c4.892-4.013,9.527-8.825,13.817-14.319C88.334,227.506,87.761,226.863,87.216,226.216"/>
<g>
	<path fill="#FFFFFF" d="M167.007,239.348c-6.144,6.021-11.909,11.394-17.002,15.988c-5.093-4.596-10.863-9.968-17.02-15.988
		c-19.11-18.75-45.753-47.671-64.058-79.037c-9.606-16.483-18.199-41.131-24.84-71.274c-2.231-10.117-3.9-19.306-5.064-26.444
		l-8.153,4.713c1.135,6.697,2.643,14.78,4.581,23.545c6.917,31.516,15.623,56.387,25.863,73.914
		c8.314,14.241,18.956,29.153,31.607,44.338c10.095,12.099,21.487,24.395,33.881,36.553c8.705,8.527,16.692,15.795,23.086,21.41
		v0.189c0.046-0.027,0.078-0.072,0.117-0.104c0.033,0.031,0.067,0.074,0.105,0.104v-0.189c6.406-5.615,14.386-12.883,23.082-21.41
		c9.806-9.641,18.988-19.336,27.404-28.965c-1.82-2.41-3.552-4.93-5.205-7.506C185.367,220.781,175.45,231.055,167.007,239.348z"/>
	<path fill="#FFFFFF" d="M260.964,62.591c-1.151,7.139-2.83,16.327-5.053,26.444c-6.64,30.144-15.222,54.791-24.843,71.275
		c-3.991,6.834-8.371,13.549-12.986,20.063c1.445,2.944,3.021,5.812,4.736,8.567c5.949-8.219,11.271-16.305,15.877-24.182
		c10.219-17.526,18.93-42.397,25.856-73.913c1.938-8.765,3.439-16.851,4.576-23.545L260.964,62.591z"/>
</g>
<path fill="#1B1C20" d="M247.456,213.355c-24.731-13.164-35.711-44.178-42.491-70.031c6.627-4.116,12.178-9.741,16.096-16.319
	c4.195-7.084,6.412-15.156,6.412-23.352c0-12.022-4.701-23.473-13.24-32.249c-8.215-8.418-19.239-13.629-31.137-14.718v-0.221
	h-16.098v-16.55h64.492L204.68,11.432H95.536l-26.82,28.483h64.504v16.551H85.53l0.484,1.635c4.637,15.657,6.968,32.376,6.968,49.68
	c0,17.02-2.693,33.435-8.059,49.16c0.573,0.92,1.151,1.875,1.748,2.816c5.894-16.565,8.872-34.001,8.872-51.978
	c0-16.953-2.227-33.353-6.596-48.772h44.273v25.663h-15.422v31.272h65.729v-0.042c7.885-0.598,14.102-7.341,14.102-15.585
	c0-8.256-6.217-14.993-14.102-15.595V84.67h-16.528V59.008h13.547v0.05l1.188,0.08c24.223,1.656,43.195,21.207,43.195,44.516
	c0,15.561-8.257,29.764-22.094,37.966l-0.826,0.502l0.239,0.916c4.647,17.87,9.627,31.394,15.715,42.549
	c7.438,13.646,16.286,23.259,27.032,29.328l-17.24,24.604c-29.001-19.975-48.186-55.893-51.41-96.362l-0.109-1.176H115.85
	l-0.072,1.197c-0.929,15.777-3.936,31.044-8.666,44.96c0.635,0.771,1.258,1.545,1.887,2.307c5.038-14.379,8.213-30.014,9.255-45.908
	h14.966v38.966l16.891,20.628l16.888-20.628v-38.966h6.896c3.617,41.232,23.549,77.73,53.482,97.801l1.049,0.702l20.289-29.007
	L247.456,213.355z M133.22,104.402v9.309h-13.195V86.902h13.195V104.402z M182.816,86.902l0.541,0.043
	c3.259,0.247,6.279,1.748,8.521,4.205c2.286,2.499,3.521,5.736,3.521,9.166c0,3.407-1.235,6.664-3.521,9.146
	c-2.242,2.474-5.264,3.955-8.521,4.212l-0.541,0.036h-15.818v-9.309v-17.5L182.816,86.902L182.816,86.902z"/>
</svg>
